<svg xmlns="http://www.w3.org/2000/svg" xml:space="preserve" fill-rule="evenodd" stroke-linejoin="round" stroke-miterlimit="2" clip-rule="evenodd" viewBox="0 0 70 70"><path fill="#229ed9" fill-rule="nonzero" d="m65.58 29.44-7.34-1.82a25 25 0 0 0-1.69-4.02l3.41-5.7c.44-.74.33-1.69-.29-2.29l-5.3-5.31c-.6-.6-1.54-.73-2.28-.28l-5.7 3.42a25 25 0 0 0-4.02-1.68l-1.8-7.33A1.86 1.86 0 0 0 38.74 3h-7.5c-.86 0-1.61.59-1.81 1.42l-1.82 7.34q-2.21.7-4.25 1.81l-5.9-3.54a1.9 1.9 0 0 0-2.3.27l-5.3 5.31a1.9 1.9 0 0 0-.3 2.29l3.67 6.11a25 25 0 0 0-1.48 3.61l-7.33 1.82c-.84.2-1.43.95-1.43 1.81v7.5c0 .86.59 1.61 1.42 1.81l7.34 1.81a25 25 0 0 0 1.73 4.1l-3.28 5.45a1.9 1.9 0 0 0 .29 2.3l5.3 5.3c.6.6 1.55.73 2.29.28l5.47-3.27q1.96 1.05 4.07 1.7l1.8 7.35c.2.83.96 1.42 1.82 1.42h7.5c.86 0 1.61-.59 1.81-1.42l1.81-7.34a24 24 0 0 0 4.17-1.77l5.55 3.33c.73.45 1.68.34 2.28-.27l5.3-5.3a1.9 1.9 0 0 0 .3-2.3l-3.38-5.62a23 23 0 0 0 1.65-3.94l7.34-1.8c.83-.2 1.42-.96 1.42-1.82v-7.5c0-.86-.59-1.61-1.42-1.81"/><path fill="#fff" fill-rule="nonzero" d="M46.22 21.78s3.08-1.19 2.85 1.74c-.08 1.19-.87 5.38-1.5 9.9l-1.99 13.45s-.23 1.98-1.74 2.3c-1.5.4-3.88-1.19-4.27-1.5-.32-.24-6.42-4.12-8.55-6.02-.56-.48-1.27-1.5.08-2.7l8.94-8.62c1.03-1.03 2.06-3.4-2.22-.48l-11.95 8.16s-1.35.79-3.88.08l-5.54-1.74s-2.06-1.27 1.42-2.54c8.55-4.04 19.08-8.15 28.35-12.03"/></svg>